<svg width="40" height="40" viewBox="0 0 40 40" fill="none" xmlns="http://www.w3.org/2000/svg">
<path d="M14.3176 20.4246C14.3176 21.6592 15.2198 22.6644 16.3147 22.6644C17.4271 22.6644 18.3118 21.6592 18.3118 20.4246C18.3293 19.1989 17.4359 18.1849 16.3147 18.1849C15.2023 18.1849 14.3176 19.1901 14.3176 20.4246Z" fill="#B5FED9"/>
<path d="M21.7016 20.4246C21.7016 21.6592 22.6038 22.6644 23.6987 22.6644C24.8199 22.6644 25.6958 21.6592 25.6958 20.4246C25.7133 19.1989 24.8199 18.1849 23.6987 18.1849C22.5863 18.1849 21.7016 19.1901 21.7016 20.4246Z" fill="#B5FED9"/>
<path fill-rule="evenodd" clip-rule="evenodd" d="M20 40C31.0457 40 40 31.0457 40 20C40 8.9543 31.0457 0 20 0C8.9543 0 0 8.9543 0 20C0 31.0457 8.9543 40 20 40ZM23.1775 11.112C24.7656 11.3862 26.2844 11.865 27.7008 12.5149C27.7131 12.5202 27.7236 12.529 27.7297 12.5414C30.2392 16.2326 31.4786 20.3964 31.0153 25.1899C31.0135 25.2101 31.003 25.2287 30.9864 25.241C29.0856 26.6369 27.2444 27.4843 25.4287 28.046C25.3997 28.0548 25.3682 28.0442 25.3507 28.0195C24.9311 27.4358 24.5501 26.8203 24.2164 26.1739C24.1971 26.136 24.2146 26.0902 24.254 26.0752C24.8593 25.8468 25.4348 25.5734 25.9884 25.2498C26.0322 25.2243 26.0348 25.1616 25.9945 25.1316C25.8771 25.0443 25.7606 24.9526 25.6494 24.8609C25.6284 24.8442 25.6003 24.8407 25.5767 24.8521C21.9828 26.5125 18.0455 26.5125 14.4087 24.8521C14.385 24.8415 14.357 24.8451 14.3369 24.8618C14.2256 24.9535 14.1091 25.0443 13.9926 25.1316C13.9523 25.1616 13.9558 25.2243 13.9996 25.2498C14.5532 25.5673 15.1287 25.8468 15.7331 26.0761C15.7725 26.091 15.7909 26.136 15.7716 26.1739C15.4449 26.8212 15.0639 27.4367 14.6364 28.0204C14.618 28.0442 14.5874 28.0548 14.5585 28.046C12.7514 27.4843 10.9102 26.6369 9.00949 25.241C8.99373 25.2287 8.98234 25.2093 8.98059 25.189C8.59343 21.0428 9.38263 16.8445 12.2636 12.5405C12.2705 12.529 12.2811 12.5202 12.2933 12.5149C13.7106 11.8642 15.2294 11.3853 16.8166 11.112C16.8455 11.1076 16.8744 11.1208 16.8893 11.1464C17.0855 11.4938 17.3097 11.9391 17.4613 12.3033C19.1343 12.0476 20.8336 12.0476 22.5416 12.3033C22.6931 11.947 22.9095 11.4938 23.1048 11.1464C23.1197 11.1199 23.1486 11.1067 23.1775 11.112Z" fill="#B5FED9"/>
</svg>
