<svg width="319" height="96" viewBox="0 0 319 96" fill="none" xmlns="http://www.w3.org/2000/svg">
<path d="M46.3917 63.9772C44.2112 58.4519 39.7391 57.898 39.2552 53.1042C38.8638 49.2273 41.6708 48.4241 42.9934 42.5727C43.3311 41.0782 45.0506 33.4963 41.2942 28.646C37.7804 24.1093 30.1632 22.8729 22.4895 25.4079C22.5106 19.3295 22.5317 14.0716 22.5528 8H16C16.0413 20.4235 16.0826 31.9949 16.1238 44.4062C17.018 44.344 19.2201 44.3032 21.4239 45.6416C24.0082 47.2112 25.729 50.1296 25.6861 53.2012C25.6136 58.392 20.5327 62.0423 16.8421 62.0423C16.6305 62.0423 16.4215 62.0307 16.2137 62.0161C16.3165 70.1225 16.4195 78.2282 16.5224 86.3346C28.3224 90.3772 40.0691 86.7335 44.6925 78.9295C46.7091 75.5256 48.5278 69.3899 46.3917 63.9772Z" fill="#F8F0FB"/>
<path d="M34.4837 87.7551C41.4271 87.171 47.3566 82.6408 49.518 76.2961C51.9867 69.0493 49.094 60.7435 42.3675 56.3114C47.8275 61.0225 50.0496 68.4634 48.0328 75.2521C46.1697 81.5238 40.9631 86.3157 34.4837 87.7551Z" fill="#F8F0FB"/>
<path d="M40.7549 50.1052C41.309 49.6701 47.1525 44.915 46.722 37.1055C46.3473 30.3062 41.5034 26.3945 40.7549 25.8107C42.0094 27.2725 44.262 30.3267 45.0172 34.7613C46.4064 42.9193 41.591 49.0719 40.7549 50.1052Z" fill="#F8F0FB"/>
<path fill-rule="evenodd" clip-rule="evenodd" d="M21.4357 61.9035V43.9356H19.48V61.9035H21.4357Z" fill="#F8F0FB"/>
<path fill-rule="evenodd" clip-rule="evenodd" d="M18.5125 63.1077L18.5658 44.354L16.6101 44.3485L16.5568 63.1021L18.5125 63.1077Z" fill="#F8F0FB"/>
<path d="M98.1679 65.2778C98.1679 67.5 97.5938 69.3704 96.4457 70.8889C95.2975 72.3704 93.742 73.5 91.779 74.2778C89.8531 75.0556 87.742 75.4444 85.4457 75.4444H66.3901V36H87.5013C89.3531 36 90.9457 36.5 92.279 37.5C93.6124 38.463 94.6494 39.7222 95.3901 41.2778C96.1309 42.8333 96.5013 44.4259 96.5013 46.0556C96.5013 47.9815 96.0198 49.7963 95.0568 51.5C94.0938 53.1667 92.6864 54.4074 90.8346 55.2222C93.0938 55.8889 94.8716 57.0926 96.1679 58.8333C97.5012 60.5741 98.1679 62.7222 98.1679 65.2778ZM74.0568 42.5556V52.5H84.279C85.5383 52.5 86.6309 52.0556 87.5568 51.1667C88.4827 50.2778 88.9457 49.0556 88.9457 47.5C88.9457 46.0185 88.5198 44.8333 87.6679 43.9444C86.8531 43.0185 85.8346 42.5556 84.6124 42.5556H74.0568ZM90.4457 63.8333C90.4457 62.3889 90.0012 61.1481 89.1124 60.1111C88.2235 59.0741 87.1309 58.5556 85.8346 58.5556H74.0568V68.9444H85.4457C86.8531 68.9444 88.0383 68.4444 89.0013 67.4444C89.9642 66.4444 90.4457 65.2407 90.4457 63.8333Z" fill="#F8F0FB"/>
<path d="M101.931 64.5556V46.3333H109.375V62.9444C109.375 67.4259 110.986 69.6667 114.209 69.6667C115.653 69.6667 117.042 69.2407 118.375 68.3889C119.746 67.5 120.857 66.1667 121.709 64.3889V46.3333H129.153V67.1111C129.153 67.9259 129.283 68.5 129.542 68.8333C129.801 69.1296 130.264 69.3148 130.931 69.3889V75.4444C130.19 75.5926 129.561 75.6852 129.042 75.7222C128.561 75.7593 128.116 75.7778 127.709 75.7778C126.375 75.7778 125.283 75.4815 124.431 74.8889C123.616 74.2593 123.135 73.4074 122.986 72.3333L122.82 70C121.524 72 119.857 73.5 117.82 74.5C115.783 75.5 113.542 76 111.098 76C108.098 76 105.82 75.037 104.264 73.1111C102.709 71.1482 101.931 68.2963 101.931 64.5556Z" fill="#F8F0FB"/>
<path d="M152.773 52.7778C150.514 52.7778 148.496 53.2222 146.718 54.1111C144.94 54.963 143.662 56.2037 142.884 57.8333V75.4444H135.44V46.3333H142.273V52.5556C143.273 50.5556 144.57 48.9815 146.162 47.8333C147.792 46.6852 149.496 46.0556 151.273 45.9444C152.051 45.9444 152.551 45.963 152.773 46V52.7778Z" fill="#F8F0FB"/>
<path d="M182.869 75.4444H175.424V59.1111C175.424 56.7778 175.017 55.0741 174.202 54C173.387 52.9259 172.258 52.3889 170.813 52.3889C169.813 52.3889 168.795 52.6481 167.758 53.1667C166.758 53.6852 165.85 54.4074 165.036 55.3333C164.221 56.2222 163.628 57.2593 163.258 58.4444V75.4444H155.813V46.3333H162.536V51.7222C163.61 49.9074 165.165 48.4815 167.202 47.4444C169.239 46.3704 171.536 45.8333 174.091 45.8333C175.906 45.8333 177.387 46.1667 178.536 46.8333C179.684 47.463 180.573 48.3333 181.202 49.4444C181.832 50.5185 182.258 51.7407 182.48 53.1111C182.739 54.4815 182.869 55.8704 182.869 57.2778V75.4444Z" fill="#F8F0FB"/>
<path d="M205.513 73.9444C204.513 74.3889 203.272 74.8333 201.79 75.2778C200.346 75.7222 198.846 75.9444 197.29 75.9444C195.92 75.9444 194.661 75.7037 193.513 75.2222C192.364 74.7407 191.438 73.9815 190.735 72.9444C190.068 71.8704 189.735 70.4815 189.735 68.7778V52.0556H185.901V46.3333H189.735V36.8889H197.179V46.3333H203.29V52.0556H197.179V66.2778C197.179 67.2778 197.438 68 197.957 68.4444C198.513 68.8889 199.179 69.1111 199.957 69.1111C200.735 69.1111 201.494 68.9815 202.235 68.7222C202.975 68.463 203.568 68.2407 204.013 68.0556L205.513 73.9444Z" fill="#F8F0FB"/>
<path d="M208.001 64.5556V46.3333H215.445V62.9444C215.445 67.4259 217.056 69.6667 220.279 69.6667C221.723 69.6667 223.112 69.2407 224.445 68.3889C225.816 67.5 226.927 66.1667 227.779 64.3889V46.3333H235.223V67.1111C235.223 67.9259 235.353 68.5 235.612 68.8333C235.871 69.1296 236.334 69.3148 237.001 69.3889V75.4444C236.26 75.5926 235.63 75.6852 235.112 75.7222C234.63 75.7593 234.186 75.7778 233.779 75.7778C232.445 75.7778 231.353 75.4815 230.501 74.8889C229.686 74.2593 229.205 73.4074 229.056 72.3333L228.89 70C227.593 72 225.927 73.5 223.89 74.5C221.853 75.5 219.612 76 217.167 76C214.167 76 211.89 75.037 210.334 73.1111C208.779 71.1482 208.001 68.2963 208.001 64.5556Z" fill="#F8F0FB"/>
<path d="M268.565 75.4444H261.121V59.1111C261.121 56.7778 260.714 55.0741 259.899 54C259.084 52.9259 257.954 52.3889 256.51 52.3889C255.51 52.3889 254.491 52.6481 253.454 53.1667C252.454 53.6852 251.547 54.4074 250.732 55.3333C249.917 56.2222 249.325 57.2593 248.954 58.4444V75.4444H241.51V46.3333H248.232V51.7222C249.306 49.9074 250.862 48.4815 252.899 47.4444C254.936 46.3704 257.232 45.8333 259.788 45.8333C261.603 45.8333 263.084 46.1667 264.232 46.8333C265.38 47.463 266.269 48.3333 266.899 49.4444C267.528 50.5185 267.954 51.7407 268.177 53.1111C268.436 54.4815 268.565 55.8704 268.565 57.2778V75.4444Z" fill="#F8F0FB"/>
<path d="M287.427 76C284.279 76 281.557 75.3148 279.261 73.9444C277.002 72.5741 275.242 70.7593 273.983 68.5C272.724 66.2037 272.094 63.7222 272.094 61.0556C272.094 58.3148 272.705 55.7963 273.927 53.5C275.187 51.1667 276.964 49.3148 279.261 47.9444C281.557 46.537 284.298 45.8333 287.483 45.8333C290.668 45.8333 293.39 46.537 295.65 47.9444C297.909 49.3148 299.631 51.1481 300.816 53.4444C302.039 55.7037 302.65 58.1481 302.65 60.7778C302.65 61.7407 302.594 62.5741 302.483 63.2778H279.983C280.168 65.537 281.002 67.3148 282.483 68.6111C284.002 69.9074 285.742 70.5556 287.705 70.5556C289.187 70.5556 290.576 70.2037 291.872 69.5C293.205 68.7593 294.113 67.7963 294.594 66.6111L300.983 68.3889C299.909 70.6111 298.187 72.4444 295.816 73.8889C293.446 75.2963 290.65 76 287.427 76ZM279.816 58.5556H295.039C294.816 56.3704 293.983 54.6111 292.539 53.2778C291.131 51.9074 289.409 51.2222 287.372 51.2222C285.372 51.2222 283.65 51.9074 282.205 53.2778C280.798 54.6111 280.002 56.3704 279.816 58.5556Z" fill="#F8F0FB"/>
</svg>
